<svg preserveAspectRatio="none" overflow="visible" style="display: block;" width="172" height="120.001" viewBox="0 0 172 120.001" fill="none" xmlns="http://www.w3.org/2000/svg">
<g id="Group">
<path id="Vector" d="M2 21.0005H164M15 11.0005C35 1.00054 56 0.000544548 78 7.00054C98 14.0005 119 13.0005 151 2.00054" stroke="white" stroke-width="4" stroke-linecap="round" stroke-linejoin="round"/>
<path id="Vector_2" d="M45 50.0005V107.001M46 53.0005L90 88.0005H46V53.0005ZM44 53.0005L16 82.0005H44V53.0005Z" stroke="white" stroke-width="4" stroke-linecap="round" stroke-linejoin="round"/>
<path id="Vector_3" d="M13 107.001H97" stroke="white" stroke-width="4" stroke-linecap="round" stroke-linejoin="round"/>
<path id="Vector_4" d="M133 111.001C149.569 111.001 163 97.5691 163 81.0005C163 64.432 149.569 51.0005 133 51.0005C116.431 51.0005 103 64.432 103 81.0005C103 97.5691 116.431 111.001 133 111.001Z" stroke="white" stroke-width="4" stroke-linecap="round" stroke-linejoin="round"/>
<path id="Vector_5" d="M133 57.0005L143 86.0005L133 105.001L123 76.0005L133 57.0005Z" stroke="white" stroke-width="4" stroke-linecap="round" stroke-linejoin="round"/>
<path id="Vector_6" d="M133 44.0005V51.0005M133 111.001V118.001M96 81.0005H103M163 81.0005H170" stroke="white" stroke-width="4" stroke-linecap="round" stroke-linejoin="round"/>
</g>
</svg>
